<?xml version="1.0" standalone="no"?>
<!DOCTYPE svg PUBLIC "-//W3C//DTD SVG 20010904//EN"
 "http://www.w3.org/TR/2001/REC-SVG-20010904/DTD/svg10.dtd">
<svg version="1.0" xmlns="http://www.w3.org/2000/svg"
 width="310.000000pt" height="310.000000pt" viewBox="0 0 310.000000 310.000000"
 preserveAspectRatio="xMidYMid meet">
<metadata>
Created by potrace 1.11, written by Peter Selinger 2001-2013
</metadata>
<g transform="translate(0.000000,310.000000) scale(0.100000,-0.100000)"
fill="#000000" stroke="none">
<path d="M210 3073 c-88 -29 -153 -95 -183 -184 -23 -67 -23 -2612 0 -2679 30
-89 94 -152 185 -183 42 -14 190 -16 1336 -16 942 0 1300 3 1328 12 84 24 145
76 186 157 l23 45 2 1308 c2 1416 4 1349 -50 1432 -27 41 -93 90 -147 108 -68
23 -2612 23 -2680 0z"/>
</g>
</svg>
